<?xml version="1.0" encoding="UTF-8"?>
<!-- Generated by Pixelmator Pro 3.5.7 -->
<svg width="57" height="57" viewBox="0 0 57 57" xmlns="http://www.w3.org/2000/svg">
    <g id="Group">
        <path id="Path" fill="#bdc3c7" stroke="none" d="M 24 31.5 C 24 34.537567 21.537565 37 18.5 37 C 15.462434 37 13 34.537567 13 31.5 C 13 28.462435 15.462434 26 18.5 26 C 21.537565 26 24 28.462435 24 31.5 Z"/>
        <path id="path1" fill="#bdc3c7" stroke="none" d="M 18.5 38 C 14.916 38 12 35.084 12 31.5 C 12 27.916 14.916 25 18.5 25 C 22.084 25 25 27.916 25 31.5 C 25 35.084 22.084 38 18.5 38 Z M 18.5 27 C 16.018999 27 14 29.018999 14 31.5 C 14 33.980999 16.018999 36 18.5 36 C 20.981001 36 23 33.980999 23 31.5 C 23 29.018999 20.981001 27 18.5 27 Z"/>
    </g>
    <g id="g1">
        <path id="path2" fill="#bdc3c7" stroke="none" d="M 41 31.5 C 41 34.537567 38.537567 37 35.5 37 C 32.462433 37 30 34.537567 30 31.5 C 30 28.462435 32.462433 26 35.5 26 C 38.537567 26 41 28.462435 41 31.5 Z"/>
        <path id="path3" fill="#bdc3c7" stroke="none" d="M 35.5 38 C 31.916 38 29 35.084 29 31.5 C 29 27.916 31.916 25 35.5 25 C 39.084 25 42 27.916 42 31.5 C 42 35.084 39.084 38 35.5 38 Z M 35.5 27 C 33.019001 27 31 29.018999 31 31.5 C 31 33.980999 33.019001 36 35.5 36 C 37.980999 36 40 33.980999 40 31.5 C 40 29.018999 37.980999 27 35.5 27 Z"/>
    </g>
    <path id="path4" fill="#bdc3c7" stroke="none" d="M 13 32 C 12.447 32 12 31.552999 12 31 C 12 23.279999 18.280001 17 26 17 C 26.552999 17 27 17.446999 27 18 C 27 18.553001 26.552999 19 26 19 C 19.382999 19 14 24.382999 14 31 C 14 31.552999 13.553 32 13 32 Z"/>
    <path id="path5" fill="#bdc3c7" stroke="none" d="M 30 32 C 29.447001 32 29 31.552999 29 31 C 29 23.279999 35.279999 17 43 17 C 43.553001 17 44 17.446999 44 18 C 44 18.553001 43.553001 19 43 19 C 36.382999 19 31 24.382999 31 31 C 31 31.552999 30.552999 32 30 32 Z"/>
</svg>
